<!DOCTYPE svg PUBLIC "-//W3C//DTD SVG 1.1//EN" "http://www.w3.org/Graphics/SVG/1.1/DTD/svg11.dtd">
<!-- Uploaded to: SVG Repo, www.svgrepo.com, Transformed by: SVG Repo Mixer Tools -->
<svg height="100px" width="100px" version="1.1" id="Capa_1" xmlns="http://www.w3.org/2000/svg" xmlns:xlink="http://www.w3.org/1999/xlink" viewBox="0 0 502.66 502.66" xml:space="preserve" fill="#E0E0E0" stroke="#E0E0E0" stroke-width="0.005026640000000001" transform="matrix(1, 0, 0, 1, 0, 0)">

<g id="SVGRepo_bgCarrier" stroke-width="0"/>

<g id="SVGRepo_tracerCarrier" stroke-linecap="round" stroke-linejoin="round"/>

<g id="SVGRepo_iconCarrier"> <g> <g> <g> <path style="fill:#E0E0E0;" d="M52.137,144.664h398.369c28.797,0,52.158-25.756,52.158-57.594 c0-31.86-23.361-57.659-52.158-57.659H52.137C23.404,29.412,0,55.21,0,87.07C0,118.909,23.404,144.664,52.137,144.664z M71.464,51.608c19.586,0,35.484,15.876,35.484,35.462s-15.876,35.462-35.484,35.462c-19.565,0-35.462-15.876-35.462-35.462 C36.002,67.484,51.899,51.608,71.464,51.608z"/> <path style="fill:#E0E0E0;" d="M450.506,193.716H52.137C23.404,193.716,0,219.537,0,251.375s23.404,57.594,52.137,57.594h398.369 c28.797,0,52.158-25.756,52.158-57.594S479.303,193.716,450.506,193.716z M323.972,286.837 c-19.586,0-35.462-15.876-35.462-35.462c0-19.586,15.855-35.462,35.462-35.462s35.484,15.876,35.484,35.462 C359.434,270.961,343.558,286.837,323.972,286.837z"/> <path style="fill:#E0E0E0;" d="M450.506,357.999H52.137C23.404,357.999,0,383.82,0,415.658c0,31.817,23.404,57.637,52.137,57.594 h398.369c28.797,0,52.158-25.777,52.158-57.594S479.303,357.999,450.506,357.999z M214.996,451.121 c-19.586,0-35.462-15.876-35.462-35.484s15.855-35.462,35.462-35.462s35.462,15.855,35.462,35.462 S234.582,451.121,214.996,451.121z"/> </g> </g> <g> </g> <g> </g> <g> </g> <g> </g> <g> </g> <g> </g> <g> </g> <g> </g> <g> </g> <g> </g> <g> </g> <g> </g> <g> </g> <g> </g> <g> </g> </g> </g>

</svg>