<!DOCTYPE svg PUBLIC "-//W3C//DTD SVG 1.1//EN" "http://www.w3.org/Graphics/SVG/1.1/DTD/svg11.dtd">
<!-- Uploaded to: SVG Repo, www.svgrepo.com, Transformed by: SVG Repo Mixer Tools -->
<svg width="100px" height="100px" viewBox="0 0 24 24" fill="none" xmlns="http://www.w3.org/2000/svg">

<g id="SVGRepo_bgCarrier" stroke-width="0"/>

<g id="SVGRepo_tracerCarrier" stroke-linecap="round" stroke-linejoin="round"/>

<g id="SVGRepo_iconCarrier"> <path d="M13.0256 6.6C13.0256 8.58823 11.4185 10.2 9.4359 10.2C7.45334 10.2 5.84615 8.58823 5.84615 6.6C5.84615 4.61177 7.45334 3 9.4359 3C11.4185 3 13.0256 4.61177 13.0256 6.6Z" fill="#E0E0E0"/> <path fill-rule="evenodd" clip-rule="evenodd" d="M2 6.6C2 6.17395 2.3444 5.82857 2.76923 5.82857H5.84615C6.27099 5.82857 6.61539 6.17395 6.61539 6.6C6.61539 7.02605 6.27099 7.37143 5.84615 7.37143H2.76923C2.3444 7.37143 2 7.02605 2 6.6Z" fill="#E0E0E0"/> <path fill-rule="evenodd" clip-rule="evenodd" d="M14.3077 6.6C14.3077 6.17395 14.6521 5.82857 15.0769 5.82857L21.2308 5.82857C21.6556 5.82857 22 6.17395 22 6.6C22 7.02605 21.6556 7.37143 21.2308 7.37143L15.0769 7.37143C14.6521 7.37143 14.3077 7.02605 14.3077 6.6Z" fill="#E0E0E0"/> <path d="M10.9744 17.4C10.9744 19.3882 12.5815 21 14.5641 21C16.5467 21 18.1538 19.3882 18.1538 17.4C18.1538 15.4118 16.5467 13.8 14.5641 13.8C12.5815 13.8 10.9744 15.4118 10.9744 17.4Z" fill="#E0E0E0"/> <path fill-rule="evenodd" clip-rule="evenodd" d="M22 17.4C22 16.974 21.6556 16.6286 21.2308 16.6286H18.1538C17.729 16.6286 17.3846 16.974 17.3846 17.4C17.3846 17.826 17.729 18.1714 18.1538 18.1714H21.2308C21.6556 18.1714 22 17.826 22 17.4Z" fill="#E0E0E0"/> <path fill-rule="evenodd" clip-rule="evenodd" d="M9.69231 17.4C9.69231 16.974 9.34791 16.6286 8.92308 16.6286L2.76923 16.6286C2.3444 16.6286 2 16.974 2 17.4C2 17.826 2.3444 18.1714 2.76923 18.1714L8.92308 18.1714C9.34791 18.1714 9.69231 17.826 9.69231 17.4Z" fill="#E0E0E0"/> </g>

</svg>